<svg width="16" height="16" viewBox="0 0 16 16" fill="none" xmlns="http://www.w3.org/2000/svg">
<path d="M15 14V12.637C15 12.033 14.803 11.447 14.44 10.969C14.0817 10.4943 13.5747 10.1531 13 10M10.667 2.08701C11.2412 2.23327 11.7503 2.56665 12.1139 3.0345C12.4775 3.50234 12.6749 4.07798 12.6749 4.67051C12.6749 5.26304 12.4775 5.83868 12.1139 6.30653C11.7503 6.77437 11.2412 7.10775 10.667 7.25401M11 14V12.667C11.0035 11.9684 10.7419 11.2944 10.268 10.781C10.0426 10.5365 9.76936 10.341 9.46521 10.2067C9.16105 10.0723 8.8325 10.002 8.5 10H3.5C2.837 10 2.201 10.281 1.732 10.781C1.25808 11.2944 0.996491 11.9684 0.999997 12.667V14H11ZM6 7.33301C6.35451 7.33988 6.70684 7.27598 7.03636 7.14506C7.36589 7.01414 7.666 6.81882 7.91914 6.57054C8.17229 6.32225 8.37338 6.02597 8.51065 5.69904C8.64793 5.37211 8.71864 5.02109 8.71864 4.66651C8.71864 4.31193 8.64793 3.96091 8.51065 3.63398C8.37338 3.30705 8.17229 3.01078 7.91914 2.76249C7.666 2.5142 7.36589 2.31888 7.03636 2.18796C6.70684 2.05704 6.35451 1.99315 6 2.00001C5.30174 2.01353 4.63664 2.30041 4.14761 2.799C3.65858 3.2976 3.38464 3.96812 3.38464 4.66651C3.38464 5.3649 3.65858 6.03543 4.14761 6.53402C4.63664 7.03261 5.30174 7.31949 6 7.33301Z" stroke="#1A0710" stroke-opacity="0.85" stroke-width="2" stroke-linecap="round" stroke-linejoin="round"/>
</svg>
